<?xml version="1.0" encoding="UTF-8"?>
<svg version="1.1" xmlns="http://www.w3.org/2000/svg" width="292" height="164">
<path d="M0 0 C0 25.41 0 50.82 0 77 C-8.58 75.35 -17.16 73.7 -26 72 C-70.37523888 64.11607431 -111.03297104 65.18543297 -155 75 C-159.455 75.99 -159.455 75.99 -164 77 C-164 51.26 -164 25.52 -164 -1 C-124.35002839 -9.41060004 -124.35002839 -9.41060004 -111 -11 C-110.29609131 -11.0928125 -109.59218262 -11.185625 -108.86694336 -11.28125 C-73.19722474 -15.51369887 -33.99205809 -11.33068603 0 0 Z " fill="#066296" transform="translate(228,76)"/>
<path d="M0 0 C1.05484085 0.42587906 2.1096817 0.85175812 3.19648743 1.2905426 C6.69211037 2.70397711 10.18182064 4.13147131 13.671875 5.55859375 C16.12443621 6.55248768 18.57735423 7.54542935 21.03100586 8.53662109 C22.29094974 9.0457506 23.55088313 9.5549061 24.81080627 10.06408691 C25.44201448 10.31917526 26.07322269 10.57426361 26.72355843 10.83708191 C28.6696082 11.62417018 30.61508398 12.41266174 32.56040955 13.20153809 C45.43372441 18.42012312 58.34516555 23.54100015 71.26263428 28.64910889 C77.32603783 31.04687452 83.3875922 33.4493089 89.44921875 35.8515625 C90.58027039 36.29973328 91.71132202 36.74790405 92.87664795 37.20965576 C106.07124412 42.43968157 119.25157947 47.70517742 132.421875 52.99609375 C132.421875 53.65609375 132.421875 54.31609375 132.421875 54.99609375 C125.54767217 57.73817548 118.67201775 60.47658226 111.79447365 63.21027374 C108.60118858 64.47967756 105.40842213 65.75035386 102.21679688 67.02392578 C98.54967467 68.48717365 94.8803745 69.94490991 91.2109375 71.40234375 C90.06194977 71.86169312 88.91296204 72.32104248 87.72915649 72.79431152 C86.6682077 73.21474731 85.60725891 73.63518311 84.51416016 74.06835938 C83.10851303 74.62795349 83.10851303 74.62795349 81.67446899 75.19885254 C79.421875 75.99609375 79.421875 75.99609375 77.421875 75.99609375 C77.421875 75.00609375 77.421875 74.01609375 77.421875 72.99609375 C76.75833008 72.81868652 76.09478516 72.6412793 75.41113281 72.45849609 C70.55653217 71.1491322 65.71919712 69.80325407 60.90625 68.34765625 C50.81417169 65.29886179 40.72122455 62.44972892 30.421875 60.18359375 C29.55272461 59.98910645 28.68357422 59.79461914 27.78808594 59.59423828 C14.10210462 56.68999029 0.50768345 55.58269139 -13.453125 55.62109375 C-14.20792145 55.62163757 -14.9627179 55.6221814 -15.74038696 55.6227417 C-45.47228147 55.72029369 -73.67553219 63.0197172 -101.71240234 72.44873047 C-103.578125 72.99609375 -103.578125 72.99609375 -105.578125 72.99609375 C-106.073125 74.48109375 -106.073125 74.48109375 -106.578125 75.99609375 C-124.068125 69.06609375 -141.558125 62.13609375 -159.578125 54.99609375 C-159.578125 54.33609375 -159.578125 53.67609375 -159.578125 52.99609375 C-132.36017769 42.08200735 -105.12127452 31.22190154 -77.85107422 20.43896484 C-66.61836927 15.99498861 -55.3950875 11.53192587 -44.20703125 6.9765625 C-42.33313673 6.21619143 -40.45919625 5.45593362 -38.58520508 4.69580078 C-35.17796219 3.31346637 -31.77642064 1.91823682 -28.37768555 0.51513672 C-26.87700087 -0.09459388 -25.37611864 -0.70383859 -23.875 -1.3125 C-23.2153273 -1.58939163 -22.5556546 -1.86628326 -21.87599182 -2.15156555 C-13.42086442 -5.54486318 -8.01992955 -3.31368772 0 0 Z " fill="#FF6246" transform="translate(159.578125,4.00390625)"/>
<path d="M0 0 C2.51931378 2.31018787 4.17917719 4.73258945 5.91796875 7.66796875 C6.44970703 8.56064453 6.98144531 9.45332031 7.52929688 10.37304688 C8.07650391 11.30181641 8.62371094 12.23058594 9.1875 13.1875 C9.74630859 14.12787109 10.30511719 15.06824219 10.88085938 16.03710938 C12.25791273 18.35573768 13.63078241 20.67673875 15 23 C15.59167969 22.01 16.18335938 21.02 16.79296875 20 C20.80443312 13.29612965 24.82288337 6.60253918 29 0 C31.76271795 2.76271795 31.53296838 4.82709389 31.96484375 8.6875 C32.12671094 10.03909153 32.28882796 11.39065315 32.45117188 12.7421875 C32.6969632 14.87483932 32.93837057 17.00786469 33.17456055 19.14160156 C33.40563125 21.20010193 33.65308403 23.25613486 33.90234375 25.3125 C34.11105103 27.16294922 34.11105103 27.16294922 34.32397461 29.05078125 C34.71467304 32.3060075 34.71467304 32.3060075 38 34 C33.38 34 28.76 34 24 34 C24.66 33.67 25.32 33.34 26 33 C25.34 27.39 24.68 21.78 24 16 C23.37351563 17.12019531 22.74703125 18.24039063 22.1015625 19.39453125 C21.27610477 20.86722287 20.45058046 22.33987718 19.625 23.8125 C19.2125 24.55048828 18.8 25.28847656 18.375 26.04882812 C17.77558594 27.11713867 17.77558594 27.11713867 17.1640625 28.20703125 C16.79748535 28.8616333 16.4309082 29.51623535 16.05322266 30.19067383 C15.09793201 31.83176306 14.0533104 33.4200344 13 35 C7.555 26.09 7.555 26.09 2 17 C0.47893366 20.04213267 0.62570662 23.28047572 0.4375 26.625 C0.39431641 27.33140625 0.35113281 28.0378125 0.30664062 28.765625 C0.20055249 30.51018537 0.09977111 32.25506697 0 34 C-2.64 34 -5.28 34 -8 34 C-7.01 33.34 -6.02 32.68 -5 32 C-4.22571021 29.1710391 -4.22571021 29.1710391 -3.8671875 25.8203125 C-3.70089844 24.58152344 -3.53460938 23.34273437 -3.36328125 22.06640625 C-3.20214844 20.76574219 -3.04101562 19.46507812 -2.875 18.125 C-2.54062988 15.56489897 -2.20475708 13.00499363 -1.8671875 10.4453125 C-1.65231689 8.73625732 -1.65231689 8.73625732 -1.43310547 6.99267578 C-1.08578636 4.5927673 -0.6507538 2.33145202 0 0 Z " fill="#EFF5F8" transform="translate(133,90)"/>
<path d="M0 0 C10.23 0 20.46 0 31 0 C31 2.64 31 5.28 31 8 C30.5359375 7.0409375 30.5359375 7.0409375 30.0625 6.0625 C29.1654837 4.06389179 29.1654837 4.06389179 28 3 C26.48530552 2.76807135 24.96245438 2.58784762 23.4375 2.4375 C22.19806641 2.31181641 22.19806641 2.31181641 20.93359375 2.18359375 C20.29550781 2.12300781 19.65742187 2.06242187 19 2 C19.06877071 6.236428 19.15668121 10.4718913 19.26245117 14.70751953 C19.29573178 16.14881342 19.32375404 17.59023863 19.34643555 19.03173828 C19.3799262 21.10245797 19.432233 23.17197093 19.48828125 25.2421875 C19.51446533 26.4885498 19.54064941 27.73491211 19.56762695 29.01904297 C19.71031006 30.00275879 19.85299316 30.98647461 20 32 C20.99 32.66 21.98 33.32 23 34 C18.05 34 13.1 34 8 34 C8.99 33.34 9.98 32.68 11 32 C11.51220541 28.89786275 11.51220541 28.89786275 11.51171875 25.2421875 C11.52966995 24.57913605 11.54762115 23.91608459 11.56611633 23.23294067 C11.62032924 21.11369197 11.65414771 18.99466975 11.6875 16.875 C11.72066367 15.43877048 11.75515245 14.0025709 11.79101562 12.56640625 C11.87605964 9.04448871 11.94281873 5.52249241 12 2 C10.37181054 2.22830701 8.7473651 2.48343576 7.125 2.75 C6.22007813 2.88921875 5.31515625 3.0284375 4.3828125 3.171875 C1.83785757 3.77983843 1.83785757 3.77983843 0.6796875 6.078125 C0.45539063 6.71234375 0.23109375 7.3465625 0 8 C0 5.36 0 2.72 0 0 Z " fill="#F9FBFC" transform="translate(94,90)"/>
<path d="M0 0 C9.9 0 19.8 0 30 0 C29.67 1.32 29.34 2.64 29 4 C25.7 3.34 22.4 2.68 19 2 C19.09346313 6.23623542 19.19953913 10.47190851 19.31738281 14.70751953 C19.35569674 16.1488374 19.39054543 17.59025168 19.421875 19.03173828 C19.46747446 21.10223886 19.52547444 23.17207433 19.5859375 25.2421875 C19.63306885 27.11173096 19.63306885 27.11173096 19.68115234 29.01904297 C19.69682309 32.11541776 19.69682309 32.11541776 22 34 C17.38 34 12.76 34 8 34 C8.99 33.34 9.98 32.68 11 32 C11.51220541 28.89786275 11.51220541 28.89786275 11.51171875 25.2421875 C11.52966995 24.57913605 11.54762115 23.91608459 11.56611633 23.23294067 C11.62032924 21.11369197 11.65414771 18.99466975 11.6875 16.875 C11.72066367 15.43877048 11.75515245 14.0025709 11.79101562 12.56640625 C11.87605964 9.04448871 11.94281873 5.52249241 12 2 C10.56163249 2.11458693 9.12429034 2.24209116 7.6875 2.375 C6.48673828 2.47941406 6.48673828 2.47941406 5.26171875 2.5859375 C2.72775559 2.89564426 2.72775559 2.89564426 0 5 C0 3.35 0 1.7 0 0 Z " fill="#F0F6F9" transform="translate(171,90)"/>
<path d="M0 0 C9.24 0 18.48 0 28 0 C28 0.33 28 0.66 28 1 C20.08 1 12.16 1 4 1 C4 1.66 4 2.32 4 3 C3.01 3.495 3.01 3.495 2 4 C0.86649466 6.01669827 0.86649466 6.01669827 0 8 C0 5.36 0 2.72 0 0 Z " fill="#C2D9E5" transform="translate(94,90)"/>
<path d="M0 0 C1.32 0 2.64 0 4 0 C4 0.99 4 1.98 4 3 C3.01 3.495 3.01 3.495 2 4 C0.86649466 6.01669827 0.86649466 6.01669827 0 8 C0 5.36 0 2.72 0 0 Z " fill="#D3E3EC" transform="translate(94,90)"/>
</svg>
